<svg width="42" height="42" viewBox="0 0 42 42" fill="none" xmlns="http://www.w3.org/2000/svg">
<circle cx="21" cy="21" r="21" fill="#262E38"/>
<path d="M20.1997 26.4621C18.921 26.4621 17.913 26.1541 17.1757 25.5381L18.1277 24.2221C18.7717 24.6515 19.4624 24.8661 20.1997 24.8661C20.8157 24.8661 21.3104 24.6981 21.6837 24.3621C22.0664 24.0261 22.2577 23.5781 22.2577 23.0181C22.2577 22.5048 22.113 22.1081 21.8237 21.8281C21.5437 21.5481 21.1564 21.4081 20.6617 21.4081C20.055 21.4081 19.5417 21.6321 19.1217 22.0801L17.4557 21.3801L17.7497 16.4941H23.3357V18.1041H19.3037L19.1497 20.2321C19.6257 19.9521 20.1764 19.8121 20.8017 19.8121C21.8097 19.8121 22.5844 20.1201 23.1257 20.7361C23.6764 21.3521 23.9517 22.1081 23.9517 23.0041C23.9517 24.0495 23.6017 24.8895 22.9017 25.5241C22.2017 26.1495 21.301 26.4621 20.1997 26.4621Z" fill="#7C8798"/>
</svg>
