<svg width="42" height="42" viewBox="0 0 42 42" fill="none" xmlns="http://www.w3.org/2000/svg">
<circle cx="21" cy="21" r="21" fill="#262E38"/>
<path d="M17.1773 26.2941C17.1773 23.9795 18.3347 22.2061 20.6493 20.9741C21.1253 20.7221 21.4987 20.4655 21.7693 20.2041C22.04 19.9335 22.1753 19.6068 22.1753 19.2241C22.1753 18.8415 22.0353 18.5288 21.7553 18.2861C21.4847 18.0435 21.1253 17.9221 20.6773 17.9221C19.8 17.9221 19.1887 18.3235 18.8433 19.1261L17.3313 18.4401C17.5927 17.7961 18.022 17.2828 18.6193 16.9001C19.2167 16.5175 19.898 16.3261 20.6633 16.3261C21.6433 16.3261 22.4227 16.5968 23.0013 17.1381C23.58 17.6795 23.8693 18.3748 23.8693 19.2241C23.8693 19.9895 23.6733 20.5961 23.2813 21.0441C22.8987 21.4828 22.3013 21.9261 21.4893 22.3741C20.808 22.7475 20.2853 23.1115 19.9213 23.4661C19.5573 23.8208 19.3147 24.2221 19.1933 24.6701H23.9533V26.2941H17.1773Z" fill="#7C8798"/>
</svg>
