<svg width="42" height="42" viewBox="0 0 42 42" fill="none" xmlns="http://www.w3.org/2000/svg">
<circle cx="21" cy="21" r="21" fill="#262E38"/>
<path d="M21.3169 26.4621C20.4862 26.4621 19.7722 26.2615 19.1749 25.8601C18.5869 25.4495 18.1482 24.8895 17.8589 24.1801L19.3989 23.5641C19.8095 24.4321 20.4582 24.8661 21.3449 24.8661C21.8395 24.8661 22.2455 24.7448 22.5629 24.5021C22.8802 24.2501 23.0389 23.8955 23.0389 23.4381C23.0389 23.0181 22.8989 22.6728 22.6189 22.4021C22.3389 22.1315 21.9142 21.9961 21.3449 21.9961H20.4909V20.4001H21.3449C21.7462 20.4001 22.0682 20.2881 22.3109 20.0641C22.5629 19.8401 22.6889 19.5461 22.6889 19.1821C22.6889 18.7995 22.5675 18.4961 22.3249 18.2721C22.0915 18.0388 21.7555 17.9221 21.3169 17.9221C20.6169 17.9221 20.0895 18.2535 19.7349 18.9161L18.1949 18.3281C18.4655 17.7121 18.8715 17.2268 19.4129 16.8721C19.9542 16.5081 20.5982 16.3261 21.3449 16.3261C22.2315 16.3261 22.9595 16.5875 23.5289 17.1101C24.1075 17.6235 24.3969 18.2628 24.3969 19.0281C24.3969 19.9895 23.9862 20.6941 23.1649 21.1421C23.6409 21.3288 24.0235 21.6181 24.3129 22.0101C24.6022 22.4021 24.7469 22.8688 24.7469 23.4101C24.7469 24.3715 24.4295 25.1228 23.7949 25.6641C23.1695 26.1961 22.3435 26.4621 21.3169 26.4621Z" fill="#7C8798"/>
</svg>
