<svg width="279" height="45" viewBox="0 0 279 45" fill="none" xmlns="http://www.w3.org/2000/svg">
<rect width="279" height="45" rx="22.5" fill="#FC7614"/>
<path d="M112.326 27.168C111.43 27.168 110.655 26.944 110.002 26.496C109.358 26.0387 108.901 25.418 108.63 24.634L110.184 24.06C110.389 24.5173 110.683 24.886 111.066 25.166C111.449 25.4367 111.887 25.572 112.382 25.572C112.895 25.572 113.301 25.4553 113.6 25.222C113.908 24.9887 114.062 24.6527 114.062 24.214C114.062 24.0367 114.02 23.8733 113.936 23.724C113.852 23.5653 113.754 23.4347 113.642 23.332C113.539 23.2293 113.381 23.1267 113.166 23.024C112.951 22.9213 112.769 22.842 112.62 22.786C112.471 22.7207 112.251 22.6413 111.962 22.548C111.589 22.4173 111.299 22.3147 111.094 22.24C110.898 22.1653 110.641 22.044 110.324 21.876C110.016 21.6987 109.778 21.5213 109.61 21.344C109.451 21.1667 109.307 20.9333 109.176 20.644C109.055 20.3453 108.994 20.0187 108.994 19.664C108.994 18.9173 109.283 18.292 109.862 17.788C110.441 17.284 111.225 17.032 112.214 17.032C113.035 17.032 113.717 17.228 114.258 17.62C114.799 18.0027 115.163 18.5067 115.35 19.132L113.838 19.636C113.539 18.964 112.961 18.628 112.102 18.628C111.663 18.628 111.318 18.7213 111.066 18.908C110.823 19.0853 110.702 19.342 110.702 19.678C110.702 19.902 110.795 20.1027 110.982 20.28C111.178 20.4573 111.383 20.5927 111.598 20.686C111.822 20.77 112.149 20.882 112.578 21.022C112.858 21.1247 113.068 21.204 113.208 21.26C113.357 21.3067 113.563 21.3907 113.824 21.512C114.085 21.6333 114.291 21.7453 114.44 21.848C114.589 21.9413 114.757 22.072 114.944 22.24C115.14 22.408 115.289 22.5853 115.392 22.772C115.495 22.9493 115.583 23.164 115.658 23.416C115.733 23.6587 115.77 23.9247 115.77 24.214C115.77 25.1287 115.443 25.852 114.79 26.384C114.146 26.9067 113.325 27.168 112.326 27.168ZM123.354 27.168C122.822 27.168 122.336 27.1027 121.898 26.972C121.459 26.832 121.058 26.6173 120.694 26.328C120.33 26.0293 120.045 25.6233 119.84 25.11C119.634 24.5873 119.532 23.9713 119.532 23.262V17.2H121.212V23.262C121.212 24.1113 121.394 24.7087 121.758 25.054C122.131 25.39 122.663 25.558 123.354 25.558C124.044 25.558 124.572 25.3853 124.936 25.04C125.309 24.6947 125.496 24.102 125.496 23.262V17.2H127.176V23.262C127.176 23.962 127.073 24.5733 126.868 25.096C126.672 25.6093 126.392 26.0153 126.028 26.314C125.673 26.6033 125.272 26.818 124.824 26.958C124.385 27.098 123.895 27.168 123.354 27.168ZM131.353 17.2H135.357C136.449 17.2 137.242 17.4473 137.737 17.942C138.241 18.4367 138.493 19.062 138.493 19.818C138.493 20.7513 138.073 21.4233 137.233 21.834C137.774 22.03 138.176 22.338 138.437 22.758C138.708 23.1687 138.843 23.6167 138.843 24.102C138.843 24.886 138.572 25.5673 138.031 26.146C137.499 26.7153 136.678 27 135.567 27H131.353V17.2ZM135.133 21.148C135.674 21.148 136.085 21.0407 136.365 20.826C136.654 20.6113 136.799 20.3173 136.799 19.944C136.799 19.1507 136.332 18.754 135.399 18.754H133.033V21.148H135.133ZM135.665 25.446C136.188 25.446 136.561 25.32 136.785 25.068C137.018 24.8067 137.135 24.4987 137.135 24.144C137.135 23.1827 136.51 22.702 135.259 22.702H133.033V25.446H135.665ZM151.653 27H149.973V21.792C149.973 21.3627 149.992 20.9707 150.029 20.616C149.917 20.952 149.768 21.3533 149.581 21.82L147.201 27.168L144.821 21.792C144.653 21.4187 144.499 21.0267 144.359 20.616C144.397 20.9707 144.415 21.3627 144.415 21.792V27H142.735V17.2H144.429L146.949 22.954C147.052 23.2153 147.141 23.458 147.215 23.682C147.29 23.458 147.379 23.2153 147.481 22.954L150.015 17.2H151.653V27ZM155.965 27V17.2H157.645V27H155.965ZM165.795 18.81V27H164.115V18.81H161.329V17.2H168.581V18.81H165.795Z" fill="white"/>
</svg>
